<mxfile host="app.diagrams.net" modified="2023-11-29T04:44:50.275Z" agent="Mozilla/5.0 (Windows NT 10.0; Win64; x64) AppleWebKit/537.36 (KHTML, like Gecko) Chrome/119.0.0.0 Safari/537.36" etag="Oipbmr6miSS1osEpw_SE" version="22.1.4" type="device">
  <diagram name="Page-1" id="TmYpMpvjXsNQiirnXTXu">
    <mxGraphModel dx="794" dy="503" grid="1" gridSize="10" guides="1" tooltips="1" connect="1" arrows="1" fold="1" page="1" pageScale="1" pageWidth="850" pageHeight="1100" math="0" shadow="0">
      <root>
        <mxCell id="0" />
        <mxCell id="1" parent="0" />
        <mxCell id="RsqvbhM9a30lvWREJkGt-3" value="" style="edgeStyle=orthogonalEdgeStyle;rounded=0;orthogonalLoop=1;jettySize=auto;html=1;" edge="1" parent="1" source="RsqvbhM9a30lvWREJkGt-1">
          <mxGeometry relative="1" as="geometry">
            <mxPoint x="238" y="120" as="targetPoint" />
          </mxGeometry>
        </mxCell>
        <mxCell id="RsqvbhM9a30lvWREJkGt-1" value="Start" style="ellipse;whiteSpace=wrap;html=1;" vertex="1" parent="1">
          <mxGeometry x="203" y="50" width="70" height="40" as="geometry" />
        </mxCell>
        <mxCell id="RsqvbhM9a30lvWREJkGt-5" value="" style="edgeStyle=orthogonalEdgeStyle;rounded=0;orthogonalLoop=1;jettySize=auto;html=1;" edge="1" parent="1">
          <mxGeometry relative="1" as="geometry">
            <mxPoint x="238" y="180" as="sourcePoint" />
            <mxPoint x="238" y="210" as="targetPoint" />
          </mxGeometry>
        </mxCell>
        <mxCell id="RsqvbhM9a30lvWREJkGt-2" value="Voice Recording and Preprocessing: Noise Removal, Filtering" style="whiteSpace=wrap;html=1;" vertex="1" parent="1">
          <mxGeometry x="180" y="120" width="120" height="60" as="geometry" />
        </mxCell>
        <mxCell id="RsqvbhM9a30lvWREJkGt-7" value="" style="edgeStyle=orthogonalEdgeStyle;rounded=0;orthogonalLoop=1;jettySize=auto;html=1;" edge="1" parent="1" source="RsqvbhM9a30lvWREJkGt-4" target="RsqvbhM9a30lvWREJkGt-6">
          <mxGeometry relative="1" as="geometry" />
        </mxCell>
        <mxCell id="RsqvbhM9a30lvWREJkGt-11" value="" style="edgeStyle=orthogonalEdgeStyle;rounded=0;orthogonalLoop=1;jettySize=auto;html=1;" edge="1" parent="1" source="RsqvbhM9a30lvWREJkGt-4" target="RsqvbhM9a30lvWREJkGt-10">
          <mxGeometry relative="1" as="geometry" />
        </mxCell>
        <mxCell id="RsqvbhM9a30lvWREJkGt-4" value="Feature Extraction" style="whiteSpace=wrap;html=1;" vertex="1" parent="1">
          <mxGeometry x="180" y="210" width="120" height="30" as="geometry" />
        </mxCell>
        <mxCell id="RsqvbhM9a30lvWREJkGt-9" value="" style="edgeStyle=orthogonalEdgeStyle;rounded=0;orthogonalLoop=1;jettySize=auto;html=1;" edge="1" parent="1" source="RsqvbhM9a30lvWREJkGt-6" target="RsqvbhM9a30lvWREJkGt-8">
          <mxGeometry relative="1" as="geometry" />
        </mxCell>
        <mxCell id="RsqvbhM9a30lvWREJkGt-17" value="" style="edgeStyle=orthogonalEdgeStyle;rounded=0;orthogonalLoop=1;jettySize=auto;html=1;" edge="1" parent="1" source="RsqvbhM9a30lvWREJkGt-6" target="RsqvbhM9a30lvWREJkGt-16">
          <mxGeometry relative="1" as="geometry" />
        </mxCell>
        <mxCell id="RsqvbhM9a30lvWREJkGt-6" value="Voice Conversion" style="whiteSpace=wrap;html=1;" vertex="1" parent="1">
          <mxGeometry x="400" y="210" width="120" height="30" as="geometry" />
        </mxCell>
        <mxCell id="RsqvbhM9a30lvWREJkGt-8" value="Time Alignment" style="whiteSpace=wrap;html=1;" vertex="1" parent="1">
          <mxGeometry x="620" y="210" width="120" height="30" as="geometry" />
        </mxCell>
        <mxCell id="RsqvbhM9a30lvWREJkGt-13" value="" style="edgeStyle=orthogonalEdgeStyle;rounded=0;orthogonalLoop=1;jettySize=auto;html=1;" edge="1" parent="1" source="RsqvbhM9a30lvWREJkGt-10" target="RsqvbhM9a30lvWREJkGt-12">
          <mxGeometry relative="1" as="geometry" />
        </mxCell>
        <mxCell id="RsqvbhM9a30lvWREJkGt-10" value="Spectral Analysis: Fourier Transform" style="whiteSpace=wrap;html=1;" vertex="1" parent="1">
          <mxGeometry x="180" y="270" width="120" height="30" as="geometry" />
        </mxCell>
        <mxCell id="RsqvbhM9a30lvWREJkGt-15" value="" style="edgeStyle=orthogonalEdgeStyle;rounded=0;orthogonalLoop=1;jettySize=auto;html=1;" edge="1" parent="1" source="RsqvbhM9a30lvWREJkGt-12" target="RsqvbhM9a30lvWREJkGt-14">
          <mxGeometry relative="1" as="geometry" />
        </mxCell>
        <mxCell id="RsqvbhM9a30lvWREJkGt-12" value="Extract Features:&amp;nbsp;Pitch, Formants, Spectral Envelope" style="whiteSpace=wrap;html=1;" vertex="1" parent="1">
          <mxGeometry x="180" y="330" width="120" height="60" as="geometry" />
        </mxCell>
        <mxCell id="RsqvbhM9a30lvWREJkGt-36" style="edgeStyle=orthogonalEdgeStyle;rounded=0;orthogonalLoop=1;jettySize=auto;html=1;exitX=0.5;exitY=1;exitDx=0;exitDy=0;" edge="1" parent="1" source="RsqvbhM9a30lvWREJkGt-14">
          <mxGeometry relative="1" as="geometry">
            <mxPoint x="240" y="430" as="targetPoint" />
          </mxGeometry>
        </mxCell>
        <mxCell id="RsqvbhM9a30lvWREJkGt-14" value="Pitch Modification" style="whiteSpace=wrap;html=1;" vertex="1" parent="1">
          <mxGeometry x="180" y="410" width="120" height="30" as="geometry" />
        </mxCell>
        <mxCell id="RsqvbhM9a30lvWREJkGt-19" value="" style="edgeStyle=orthogonalEdgeStyle;rounded=0;orthogonalLoop=1;jettySize=auto;html=1;" edge="1" parent="1" source="RsqvbhM9a30lvWREJkGt-16" target="RsqvbhM9a30lvWREJkGt-18">
          <mxGeometry relative="1" as="geometry" />
        </mxCell>
        <mxCell id="RsqvbhM9a30lvWREJkGt-16" value="Formant Transfrmation" style="whiteSpace=wrap;html=1;" vertex="1" parent="1">
          <mxGeometry x="400" y="270" width="120" height="40" as="geometry" />
        </mxCell>
        <mxCell id="RsqvbhM9a30lvWREJkGt-21" value="" style="edgeStyle=orthogonalEdgeStyle;rounded=0;orthogonalLoop=1;jettySize=auto;html=1;" edge="1" parent="1" source="RsqvbhM9a30lvWREJkGt-18" target="RsqvbhM9a30lvWREJkGt-20">
          <mxGeometry relative="1" as="geometry" />
        </mxCell>
        <mxCell id="RsqvbhM9a30lvWREJkGt-18" value="Spectral Envelope Adjustment" style="whiteSpace=wrap;html=1;" vertex="1" parent="1">
          <mxGeometry x="400" y="330" width="120" height="40" as="geometry" />
        </mxCell>
        <mxCell id="RsqvbhM9a30lvWREJkGt-23" value="" style="edgeStyle=orthogonalEdgeStyle;rounded=0;orthogonalLoop=1;jettySize=auto;html=1;" edge="1" parent="1" source="RsqvbhM9a30lvWREJkGt-20" target="RsqvbhM9a30lvWREJkGt-22">
          <mxGeometry relative="1" as="geometry" />
        </mxCell>
        <mxCell id="RsqvbhM9a30lvWREJkGt-20" value="Signal Modelling&lt;br&gt;(GMM/NN)" style="whiteSpace=wrap;html=1;" vertex="1" parent="1">
          <mxGeometry x="400" y="390" width="120" height="40" as="geometry" />
        </mxCell>
        <mxCell id="RsqvbhM9a30lvWREJkGt-25" value="" style="edgeStyle=orthogonalEdgeStyle;rounded=0;orthogonalLoop=1;jettySize=auto;html=1;" edge="1" parent="1" source="RsqvbhM9a30lvWREJkGt-22" target="RsqvbhM9a30lvWREJkGt-24">
          <mxGeometry relative="1" as="geometry" />
        </mxCell>
        <mxCell id="RsqvbhM9a30lvWREJkGt-22" value="Dynamic TIme Warping&lt;br&gt;(Time Alignment)" style="whiteSpace=wrap;html=1;" vertex="1" parent="1">
          <mxGeometry x="400" y="460" width="120" height="60" as="geometry" />
        </mxCell>
        <mxCell id="RsqvbhM9a30lvWREJkGt-27" value="" style="edgeStyle=orthogonalEdgeStyle;rounded=0;orthogonalLoop=1;jettySize=auto;html=1;" edge="1" parent="1" source="RsqvbhM9a30lvWREJkGt-24" target="RsqvbhM9a30lvWREJkGt-26">
          <mxGeometry relative="1" as="geometry" />
        </mxCell>
        <mxCell id="RsqvbhM9a30lvWREJkGt-24" value="Feature Combination" style="whiteSpace=wrap;html=1;" vertex="1" parent="1">
          <mxGeometry x="400" y="540" width="120" height="30" as="geometry" />
        </mxCell>
        <mxCell id="RsqvbhM9a30lvWREJkGt-26" value="&lt;div&gt;Speech Synthesis (Vocoding/&amp;nbsp;&lt;span style=&quot;background-color: initial;&quot;&gt;Waveform Concat.)&lt;/span&gt;&lt;/div&gt;" style="whiteSpace=wrap;html=1;" vertex="1" parent="1">
          <mxGeometry x="400" y="590" width="120" height="50" as="geometry" />
        </mxCell>
        <mxCell id="RsqvbhM9a30lvWREJkGt-31" value="" style="edgeStyle=orthogonalEdgeStyle;rounded=0;orthogonalLoop=1;jettySize=auto;html=1;exitX=0.5;exitY=1;exitDx=0;exitDy=0;" edge="1" parent="1" source="RsqvbhM9a30lvWREJkGt-26" target="RsqvbhM9a30lvWREJkGt-30">
          <mxGeometry relative="1" as="geometry">
            <mxPoint x="460" y="720" as="sourcePoint" />
            <Array as="points" />
          </mxGeometry>
        </mxCell>
        <mxCell id="RsqvbhM9a30lvWREJkGt-33" value="" style="edgeStyle=orthogonalEdgeStyle;rounded=0;orthogonalLoop=1;jettySize=auto;html=1;" edge="1" parent="1" source="RsqvbhM9a30lvWREJkGt-30" target="RsqvbhM9a30lvWREJkGt-32">
          <mxGeometry relative="1" as="geometry" />
        </mxCell>
        <mxCell id="RsqvbhM9a30lvWREJkGt-30" value="Normalize Amplitude/Loudness" style="whiteSpace=wrap;html=1;" vertex="1" parent="1">
          <mxGeometry x="400" y="660" width="120" height="40" as="geometry" />
        </mxCell>
        <mxCell id="RsqvbhM9a30lvWREJkGt-35" value="" style="edgeStyle=orthogonalEdgeStyle;rounded=0;orthogonalLoop=1;jettySize=auto;html=1;" edge="1" parent="1" source="RsqvbhM9a30lvWREJkGt-32" target="RsqvbhM9a30lvWREJkGt-34">
          <mxGeometry relative="1" as="geometry" />
        </mxCell>
        <mxCell id="RsqvbhM9a30lvWREJkGt-32" value="Quality Enhancement (Post-Processing)" style="whiteSpace=wrap;html=1;" vertex="1" parent="1">
          <mxGeometry x="400" y="720" width="120" height="40" as="geometry" />
        </mxCell>
        <mxCell id="RsqvbhM9a30lvWREJkGt-38" value="" style="edgeStyle=orthogonalEdgeStyle;rounded=0;orthogonalLoop=1;jettySize=auto;html=1;" edge="1" parent="1" source="RsqvbhM9a30lvWREJkGt-34" target="RsqvbhM9a30lvWREJkGt-37">
          <mxGeometry relative="1" as="geometry" />
        </mxCell>
        <mxCell id="RsqvbhM9a30lvWREJkGt-34" value="Evaluation (Listening Tests, Measures)" style="whiteSpace=wrap;html=1;" vertex="1" parent="1">
          <mxGeometry x="400" y="780" width="120" height="40" as="geometry" />
        </mxCell>
        <mxCell id="RsqvbhM9a30lvWREJkGt-44" value="" style="edgeStyle=orthogonalEdgeStyle;rounded=0;orthogonalLoop=1;jettySize=auto;html=1;" edge="1" parent="1" source="RsqvbhM9a30lvWREJkGt-37" target="RsqvbhM9a30lvWREJkGt-43">
          <mxGeometry relative="1" as="geometry" />
        </mxCell>
        <mxCell id="RsqvbhM9a30lvWREJkGt-37" value="Synthesis" style="rounded=0;whiteSpace=wrap;html=1;" vertex="1" parent="1">
          <mxGeometry x="400" y="860" width="120" height="60" as="geometry" />
        </mxCell>
        <mxCell id="RsqvbhM9a30lvWREJkGt-39" value="" style="endArrow=classic;html=1;rounded=0;exitX=0.5;exitY=1;exitDx=0;exitDy=0;" edge="1" parent="1" source="RsqvbhM9a30lvWREJkGt-14">
          <mxGeometry width="50" height="50" relative="1" as="geometry">
            <mxPoint x="380" y="560" as="sourcePoint" />
            <mxPoint x="460" y="840" as="targetPoint" />
            <Array as="points">
              <mxPoint x="240" y="840" />
            </Array>
          </mxGeometry>
        </mxCell>
        <mxCell id="RsqvbhM9a30lvWREJkGt-42" value="" style="endArrow=classic;html=1;rounded=0;exitX=0.5;exitY=1;exitDx=0;exitDy=0;" edge="1" parent="1" source="RsqvbhM9a30lvWREJkGt-8">
          <mxGeometry width="50" height="50" relative="1" as="geometry">
            <mxPoint x="380" y="360" as="sourcePoint" />
            <mxPoint x="460" y="840" as="targetPoint" />
            <Array as="points">
              <mxPoint x="680" y="840" />
            </Array>
          </mxGeometry>
        </mxCell>
        <mxCell id="RsqvbhM9a30lvWREJkGt-43" value="Stop" style="ellipse;whiteSpace=wrap;html=1;rounded=0;" vertex="1" parent="1">
          <mxGeometry x="420" y="1040" width="80" height="40" as="geometry" />
        </mxCell>
      </root>
    </mxGraphModel>
  </diagram>
</mxfile>
